<svg width="190" height="36" viewBox="0 0 190 36" fill="none" xmlns="http://www.w3.org/2000/svg">
<g clip-path="url(#clip0_121_202)">
<path d="M101.096 2.76221C101.044 2.24447 101.381 2.19326 102.037 2.1193C102.417 2.08232 102.739 1.96 103.053 2.21602C103.312 2.42843 105.734 2.48153 110.319 2.37533C113.517 2.30516 115.402 2.24257 115.973 2.18758C116.969 2.09085 117.667 1.88035 118.064 1.55605C118.603 1.20825 119.22 1.00087 119.859 0.952965C121.14 0.827797 121.806 1.02598 121.857 1.54751C121.857 1.68975 121.977 1.80923 122.18 1.90879C122.578 2.04542 122.997 2.11371 123.418 2.11077C124.043 2.14775 124.933 2.17051 126.081 2.1762C127.228 2.18189 128.76 2.1762 130.672 2.12784C134.263 2.16482 137.522 2.85893 139.111 2.8504C140.983 2.91014 141.465 3.10073 141.488 3.33684C141.534 3.80907 140.01 4.19026 138.777 4.31258C137.97 4.39224 142.059 5.22859 142.059 5.22859L140.447 6.25838C139.548 6.87284 126.443 6.0564 124.834 6.21286L123.838 6.30958L122.556 6.4319C121.181 6.56561 120.43 6.71638 120.302 6.8643C120.053 7.2711 119.252 11.4984 116.506 19.6826C113.677 28.0272 112.097 32.2108 111.766 32.2336C111.1 32.2961 110.703 31.6665 110.576 30.3447C110.481 29.4452 110.442 28.5407 110.459 27.6365C110.514 25.245 110.731 24.0313 111.11 23.9952C111.535 23.9526 111.395 23.7307 111.572 23.2357C111.749 22.7407 112.328 19.896 113.735 14.6532C115.142 9.41033 115.836 6.68793 115.816 6.50871C115.796 6.32949 115.193 6.28398 114.009 6.39777C111.917 6.52053 109.818 6.48439 107.731 6.28967C105.335 6.07916 103.879 5.78426 103.362 5.40496C101.972 4.39508 101.216 3.51606 101.096 2.76221ZM116.889 10.901C116.931 10.8969 116.971 10.8805 117.003 10.8538C117.036 10.8271 117.06 10.7914 117.072 10.7512C117.085 10.7109 117.085 10.6679 117.073 10.6275C117.061 10.5872 117.037 10.5513 117.004 10.5244C116.972 10.4975 116.932 10.4808 116.89 10.4764C116.848 10.472 116.806 10.4802 116.768 10.4997C116.731 10.5193 116.7 10.5495 116.68 10.5865C116.66 10.6235 116.651 10.6656 116.655 10.7075C116.653 10.7368 116.659 10.766 116.671 10.7928C116.683 10.8196 116.701 10.8432 116.724 10.862C116.746 10.8807 116.773 10.8939 116.802 10.9007C116.83 10.9075 116.86 10.9076 116.889 10.901ZM121.537 4.79903C121.567 4.80022 121.596 4.79463 121.623 4.7827C121.65 4.77078 121.674 4.75283 121.692 4.73026C121.711 4.70769 121.724 4.6811 121.731 4.65257C121.738 4.62404 121.738 4.59434 121.731 4.56577C121.729 4.53775 121.721 4.51052 121.708 4.48563C121.694 4.46075 121.676 4.4387 121.655 4.42073C121.633 4.40277 121.608 4.38925 121.581 4.38094C121.554 4.37264 121.526 4.36971 121.497 4.37232C121.469 4.37494 121.442 4.38305 121.417 4.39619C121.392 4.40932 121.37 4.42723 121.352 4.44889C121.334 4.47056 121.32 4.49554 121.312 4.52243C121.304 4.54931 121.301 4.57757 121.303 4.60559C121.302 4.63489 121.308 4.66406 121.32 4.69085C121.332 4.71763 121.35 4.74131 121.372 4.76002C121.395 4.77874 121.422 4.792 121.45 4.79876C121.479 4.80553 121.509 4.80562 121.537 4.79903Z" fill="#FE2EBB"/>
<path d="M137.096 23.4007C137.017 23.4007 134.192 24.2949 128.623 26.0833C123.055 27.8717 120.257 28.764 120.23 28.7602C120.122 28.7602 119.543 28.3932 118.49 27.6223C117.437 26.8514 116.909 26.4218 116.897 26.3137C116.882 26.1506 117.511 24.9397 118.784 22.681L120.736 19.2872L121.743 19.1905L122.314 19.1137C122.622 19.071 122.885 19.0369 123.099 19.017C123.313 18.9971 123.589 18.9772 124.009 18.9487C124.428 18.9203 124.742 18.9004 124.956 18.8776L125.927 18.7837C126.597 18.7211 126.928 18.6329 126.92 18.5277C126.896 18.4493 126.846 18.3817 126.777 18.3371C126.543 18.1437 125.952 18.0925 125.013 18.1835L124.003 18.2802L123.278 18.3513C122.04 18.4708 121.418 18.4879 121.409 18.4082C121.388 18.1958 122.099 16.8417 123.541 14.3459L125.852 10.3576L130.909 10.0333C134.981 9.74887 137.922 9.55922 139.733 9.4644L144.071 9.20837C143.629 9.95369 142.607 10.8498 142.156 11.7885L131.469 12.8183C130.473 12.9071 129.545 13.3576 128.86 14.0842L128.575 14.8438L128.244 15.6062L133.558 15.0941L135.413 14.9149C136.703 14.7926 137.567 14.7357 138.001 14.7471C138.435 14.7584 138.663 14.8608 138.683 15.0486C138.551 15.4882 138.374 15.9133 138.155 16.3173C138.043 16.5778 137.877 16.8116 137.667 17.0029C137.458 17.1942 137.21 17.3387 136.939 17.4268C136.401 17.5994 134.231 18.1133 130.43 18.9686C128.038 19.4977 126.678 19.8856 126.349 20.1321C126.172 20.2592 125.951 20.6461 125.687 21.2928C125.356 22.0514 125.199 22.5255 125.216 22.7151C125.216 22.7692 125.29 22.7891 125.424 22.7777C125.776 22.7436 128.162 22.1481 132.582 20.9912C135.837 20.1359 137.613 19.694 137.91 19.6656C138.098 19.6457 138.215 19.6656 138.261 19.7139C138.313 19.7805 138.343 19.8625 138.344 19.9472C138.363 20.1634 138.186 20.7893 137.813 21.8247C137.44 22.8602 137.201 23.3855 137.096 23.4007ZM124.914 23.3267C124.791 23.176 124.514 23.1475 124.092 23.2414C122.06 23.5752 120.959 23.8435 120.79 24.0465C120.741 24.1062 120.718 24.1489 120.721 24.1773C120.721 24.257 121.095 24.2627 121.82 24.1915L122.87 24.0891C124.288 23.8729 124.985 23.6435 124.962 23.4007C124.962 23.3751 124.962 23.3637 124.936 23.3637C124.911 23.3637 124.916 23.3438 124.914 23.3267ZM122.999 17.3727C122.982 17.2106 122.879 17.1395 122.693 17.1594C122.66 17.1607 122.628 17.1687 122.598 17.1829C122.569 17.1971 122.542 17.2172 122.52 17.2419C122.499 17.2667 122.482 17.2956 122.472 17.3268C122.462 17.3581 122.459 17.3911 122.462 17.4238C122.465 17.4565 122.475 17.4882 122.49 17.517C122.506 17.5458 122.528 17.5711 122.554 17.5914C122.58 17.6116 122.609 17.6264 122.641 17.6348C122.673 17.6432 122.706 17.645 122.739 17.6401C122.922 17.6373 122.999 17.5349 122.999 17.3727ZM127.225 16.4368C127.511 16.3031 127.511 16.2491 127.208 16.2775L126.846 16.3117C126.343 16.3587 125.847 16.4608 125.367 16.616C125.028 16.7583 124.982 16.8294 125.225 16.8322L125.795 16.7782C126.287 16.7538 126.77 16.638 127.219 16.4368H127.225ZM128.224 23.0423C128.21 22.8801 127.839 22.8346 127.114 22.9057C126.389 22.9768 125.989 23.0935 126.007 23.2556C126.024 23.4178 126.406 23.4604 127.148 23.3865C127.89 23.3125 128.241 23.1987 128.224 23.0423ZM127.939 16.3714C127.955 16.3719 127.972 16.3685 127.987 16.3615C128.002 16.3546 128.016 16.3442 128.026 16.3313C128.037 16.3184 128.044 16.3032 128.048 16.2869C128.051 16.2707 128.051 16.2539 128.047 16.2377C128.048 16.2212 128.045 16.2047 128.038 16.1895C128.032 16.1744 128.022 16.161 128.009 16.1505C127.996 16.14 127.981 16.1326 127.965 16.129C127.949 16.1253 127.932 16.1255 127.916 16.1296C127.899 16.1288 127.883 16.1318 127.867 16.1384C127.852 16.145 127.838 16.155 127.828 16.1677C127.817 16.1803 127.809 16.1953 127.805 16.2113C127.801 16.2274 127.801 16.2442 127.804 16.2604C127.804 16.2775 127.808 16.2944 127.816 16.3097C127.823 16.3251 127.834 16.3385 127.848 16.349C127.861 16.3594 127.877 16.3667 127.894 16.37C127.91 16.3734 127.928 16.3729 127.944 16.3685L127.939 16.3714ZM128.897 22.8943C129.094 22.9825 129.243 22.9569 129.337 22.8119C129.411 22.7237 129.38 22.6867 129.246 22.6981L129.043 22.718C128.953 22.7185 128.865 22.741 128.786 22.7834C128.75 22.8137 128.789 22.8498 128.903 22.8915L128.897 22.8943ZM128.877 16.8066C128.86 16.6473 128.812 16.5705 128.732 16.5791C128.652 16.5876 128.581 16.6872 128.518 16.8834C128.475 17.0228 128.518 17.0854 128.618 17.0769C128.812 17.0683 128.897 16.9659 128.883 16.8038L128.877 16.8066Z" fill="#FE2EBB"/>
<path d="M156.482 26.1971C149.422 25.0962 145.638 23.7222 145.586 23.5742C145.512 23.3381 145.546 23.1959 145.695 23.1504C145.843 23.1049 146.023 22.9029 146.325 22.516C146.437 22.3538 146.488 22.2543 146.479 22.2315C146.471 22.2088 146.28 22.3254 145.852 22.718C145.577 22.9977 145.246 23.2167 144.881 23.3609C144.394 23.474 143.891 23.5 143.395 23.4377C142.424 23.3523 141.397 22.9228 140.672 23.1532C139.947 23.3836 139.562 23.3523 139.479 23.0878C139.451 22.9968 139.533 22.8431 139.725 22.6213C140.758 21.5976 141.863 20.6471 143.029 19.7765C143.186 19.6682 143.363 19.5919 143.55 19.5518C143.736 19.5118 143.929 19.5089 144.117 19.5433C144.488 19.5888 147.667 17.552 153.186 15.1453C160.343 12.0161 164.073 11.9621 165.058 11.7857C165.593 11.6692 166.152 11.7147 166.662 11.9166C167.244 12.2219 167.596 12.5661 167.717 12.9492C167.792 13.1853 167.717 13.3361 167.518 13.4015C167.249 13.484 166.881 13.8595 166.408 14.5394C165.985 15.059 165.655 15.3558 165.417 15.4298C165.292 15.4556 165.163 15.4632 165.035 15.4525C164.793 15.4013 163.557 15.665 161.325 16.2434C159.099 16.8265 156.434 18.4054 154.539 18.9971C154.039 19.1365 153.6 19.4396 153.294 19.8575C152.987 20.2755 152.831 20.784 152.849 21.3013C152.878 21.3895 155.806 23.1589 160.854 24.1119C165.489 24.9994 168.231 25.8586 168.765 25.6936H168.81L168.942 25.6509C169.239 25.5599 170 25.5181 171.225 25.5257C172.45 25.5333 173.094 25.6405 173.157 25.8472C173.211 26.0235 172.966 26.4815 172.415 27.2183C171.864 27.9551 171.459 28.3562 171.193 28.4529C170.937 28.4529 170.337 28.4785 169.353 28.4928C167.943 28.3875 163.542 27.3094 156.482 26.1971Z" fill="#FE2EBB"/>
<path d="M173.725 29.5254C173.063 29.5624 174.264 29.1584 174.866 24.9454L175.722 18.5817L175.115 18.0412C174.971 17.9305 174.852 17.7915 174.766 17.6329C174.679 17.4743 174.625 17.2996 174.609 17.1196C174.558 16.6018 174.801 16.086 175.337 15.572C175.687 15.242 176.101 13.5599 176.579 10.5255C176.656 10.0561 176.733 9.5725 176.807 9.07183C176.881 8.57116 176.947 8.13023 177.001 7.73765L177.155 6.6851C177.201 6.37219 177.246 6.11616 177.289 5.9341C177.32 5.82626 177.341 5.71579 177.352 5.60411C177.378 5.55686 177.415 5.51691 177.46 5.48804C177.506 5.45917 177.558 5.44233 177.612 5.43912C177.992 5.44166 178.363 5.55004 178.685 5.75203C179.059 5.93152 179.38 6.20385 179.618 6.54287C179.746 6.72907 179.83 6.94221 179.863 7.16586C180.135 8.76463 180.161 10.3953 179.94 12.0019C179.67 14.2777 179.545 15.5369 179.566 15.7797C179.566 15.9305 179.903 15.976 181.584 15.8138L184.061 15.5749L184.412 13.9249C185.043 10.2638 186.344 5.77195 186.41 5.33102C186.53 4.98111 186.895 4.59423 187.5 4.16468C187.85 3.96413 188.148 3.68615 188.373 3.35222C188.598 3.01828 188.742 2.63733 188.796 2.2388C188.885 1.73323 189.049 1.24348 189.281 0.785144C189.54 0.284473 189.737 0.0142236 189.891 0C189.951 0 189.989 0.0540498 190 0.173528C190.028 0.480759 188.816 5.60411 188.239 10.6592C187.663 15.7143 187.334 18.2802 187.249 18.3399C187.19 18.4212 187.148 18.5135 187.126 18.6113C187.104 18.7091 187.102 18.8103 187.12 18.9089C187.149 19.2133 186.835 19.4437 186.213 19.5945L185.223 19.8789L186.144 19.8363C186.393 19.8363 186.561 19.8363 186.655 19.8562C186.759 19.8665 186.854 19.9152 186.924 19.9927C187.021 20.104 187.076 20.2462 187.078 20.3938C187.077 21.0791 187.02 21.7632 186.906 22.4392C186.738 23.5771 187.263 30.4243 187.357 31.3688C187.418 32.2241 187.376 33.0836 187.232 33.929C187.185 34.2909 187.052 34.6363 186.844 34.9361C186.571 35.1669 186.244 35.3254 185.893 35.3969C185.311 35.5354 184.739 35.7141 184.181 35.9317C184.095 35.9686 184.003 35.9926 183.91 36.0028C183.664 36.0256 183.5 35.6103 183.416 34.7569C183.319 33.7527 182.885 25.9382 183.242 22.9399C183.623 19.7841 183.803 18.1503 183.784 18.0384C183.784 17.9445 183.097 17.9644 181.752 18.0953L180.925 18.175L178.628 18.4907L178.077 23.5287C177.563 26.8096 177.115 28.7147 176.733 29.2438C176.333 29.807 174.706 29.4685 173.725 29.5254ZM184.855 17.6117C184.855 17.7027 185.111 17.7255 185.602 17.6771C185.965 17.6117 186.139 17.5008 186.124 17.35C186.022 17.2362 185.782 17.222 185.402 17.3045C185.023 17.387 184.852 17.4894 184.863 17.6117H184.855Z" fill="#FE2EBB"/>
<path d="M7.34282 10.9778H13.6982L21.0382 24.6325H15.0195L13.9408 22.2969H7.09168L6.01009 24.6325H0L7.34282 10.9778ZM8.63559 18.943H12.394L10.5191 14.9263L8.63559 18.943Z" fill="#1B1D1D"/>
<path d="M40.8349 20.9543C40.8663 23.341 38.8373 24.6211 36.4972 24.6211H22.4736V10.9664H35.4898C37.8613 10.9664 39.8675 12.2437 39.8361 14.6191C39.8531 15.2067 39.7147 15.7884 39.4347 16.3057C39.1546 16.8231 38.7429 17.2578 38.2408 17.5662C39.7962 18.0612 40.8349 19.2389 40.8349 20.9543ZM27.8102 14.2236V16.0613H33.9915C34.2183 16.0361 34.4278 15.9285 34.58 15.759C34.7322 15.5894 34.8163 15.37 34.8163 15.1425C34.8163 14.915 34.7322 14.6955 34.58 14.526C34.4278 14.3565 34.2183 14.2488 33.9915 14.2236H27.8102ZM34.9904 21.381C35.2184 21.359 35.4301 21.2531 35.5841 21.084C35.7381 20.915 35.8234 20.6948 35.8234 20.4664C35.8234 20.238 35.7381 20.0178 35.5841 19.8487C35.4301 19.6796 35.2184 19.5738 34.9904 19.5518H27.8102V21.381H34.9904Z" fill="#1B1D1D"/>
<path d="M49.1053 10.9778H55.4493L62.7892 24.6325H56.7906L55.7118 22.2969H48.8627L47.784 24.6325H41.791L49.1053 10.9778ZM50.3981 18.943H54.1537L52.2816 14.9263L50.3981 18.943Z" fill="#1B1D1D"/>
<path d="M82.5974 20.9543C82.6259 23.341 80.5998 24.6211 78.2596 24.6211H64.2361V10.9664H77.2494C79.6238 10.9664 81.63 12.2437 81.5986 14.6191C81.6145 15.2043 81.476 15.7834 81.1971 16.2985C80.9182 16.8137 80.5085 17.2469 80.009 17.5548C81.5586 18.0612 82.5974 19.2389 82.5974 20.9543ZM69.5727 14.2236V16.0613H75.754C75.9808 16.0361 76.1903 15.9285 76.3425 15.759C76.4946 15.5894 76.5787 15.37 76.5787 15.1425C76.5787 14.915 76.4946 14.6955 76.3425 14.526C76.1903 14.3565 75.9808 14.2488 75.754 14.2236H69.5727ZM76.7671 21.3724C76.9951 21.3504 77.2068 21.2446 77.3608 21.0755C77.5148 20.9064 77.6001 20.6862 77.6001 20.4579C77.6001 20.2295 77.5148 20.0093 77.3608 19.8402C77.2068 19.6711 76.9951 19.5653 76.7671 19.5433H69.5727V21.3724H76.7671Z" fill="#1B1D1D"/>
<path d="M90.8677 10.9778H97.2117L104.552 24.6325H98.5444L97.4657 22.2969H90.6166L89.5378 24.6325H83.5249L90.8677 10.9778ZM92.1605 18.943H95.9161L94.044 14.9149L92.1605 18.943Z" fill="#1B1D1D"/>
</g>
<defs>
<clipPath id="clip0_121_202">
<rect width="190" height="36" fill="white"/>
</clipPath>
</defs>
</svg>
